Coordinates
version=1
nRows=19
nColumns=36
inDegrees=yes

Units are S.I. units (second, meters, Newtons, ...)
If the header above contains a line with 'inDegrees', this indicates whether rotational values are in degrees (yes) or radians (no).

endheader
time	pelvis_tilt	pelvis_list	pelvis_rotation	pelvis_tx	pelvis_ty	pelvis_tz	hip_flexion_r	hip_adduction_r	hip_rotation_r	knee_angle_r	knee_angle_r_beta	ankle_angle_r	subtalar_angle_r	mtp_angle_r	hip_flexion_l	hip_adduction_l	hip_rotation_l	knee_angle_l	knee_angle_l_beta	ankle_angle_l	subtalar_angle_l	mtp_angle_l	lumbar_extension	lumbar_bending	lumbar_rotation	arm_flex_r	arm_add_r	arm_rot_r	elbow_flex_r	pro_sup_r	arm_flex_l	arm_add_l	arm_rot_l	elbow_flex_l	pro_sup_l
      0.82800000	     -4.27058254	      9.02880689	     -1.13105639	      0.36597758	      0.98933156	      0.22647568	    -27.43464448	     -4.93259944	     -6.64677810	     14.53798810	      0.25373576	    -23.02783924	      0.74029062	    -36.60695425	     68.89124227	      7.84622002	     -9.69119512	     96.96673203	      1.69238874	      1.24976043	    -21.30414694	     -3.58821187	     -5.04394599	    -12.59975358	      9.54994319	     29.92036773	    -26.12543601	      0.97350179	    117.02252941	     90.00021046	    -55.49653748	    -17.57985643	     -0.86603954	     53.55420388	     90.00021046
      0.83200000	     -4.71989877	      9.53887677	     -0.77689383	      0.39587635	      0.99064666	      0.22590170	    -28.45606975	     -5.35484854	     -7.85771912	     13.67444183	      0.23866403	    -25.91654813	      0.76161669	    -37.90602061	     69.29448280	      8.42430575	     -9.99560028	     93.06258712	      1.62424856	      0.93156736	    -21.63595712	     -3.31606783	     -4.20071492	    -13.19806864	      9.66794851	     30.36476266	    -26.53400552	      0.99356707	    119.31046502	     90.00021046	    -56.88960374	    -17.67220102	     -1.60234587	     54.41775360	     90.00021046
      0.83600000	     -5.11287938	      9.72742603	     -0.36661770	      0.42549550	      0.99180733	      0.22552720	    -29.32211699	     -5.35817454	     -8.52166037	     13.42159644	      0.23425105	    -28.04705605	      0.18159171	    -28.31579020	     69.55613293	      8.86498343	    -10.00223321	     89.13384226	      1.55567902	      0.69830194	    -21.68216325	     -1.92529682	     -3.53517310	    -13.42889220	      9.72666744	     31.11872875	    -26.35671602	      0.64417025	    121.44128309	     90.00021046	    -58.09270323	    -17.79408464	     -2.14787976	     55.16187584	     90.00021046
      0.84000000	     -5.59621764	      9.93966652	     -0.12252470	      0.45470936	      0.99265724	      0.22484473	    -29.81824134	     -5.49720066	     -8.97544340	     13.77133423	      0.24035512	    -29.03608285	     -0.34590294	    -28.00207229	     69.73988165	      9.24100598	     -9.97350965	     85.02524982	      1.48397056	      0.11138241	    -21.77725714	     -2.98509444	     -2.78896392	    -13.68000781	      9.87115662	     31.59413527	    -26.96132636	      0.65034779	    123.59192953	     90.00021046	    -59.16473136	    -17.55441668	     -3.08757722	     55.79932108	     90.00021046
      0.84400000	     -5.89611766	     10.01808902	      0.06416677	      0.48382762	      0.99359185	      0.22469405	    -30.29167262	     -5.48003463	     -9.09018502	     14.71868431	      0.25688950	    -29.10448713	     -1.16706406	    -26.05594745	     69.58905814	      9.49231071	     -9.83694828	     80.87487520	      1.41153285	     -0.40903272	    -21.66548584	     -3.45350431	     -2.29200942	    -13.76090779	     10.07785473	     32.40056675	    -26.82522126	      0.46162594	    125.62519641	     90.00021046	    -60.02989916	    -17.47375351	     -3.84246711	     56.36231886	     90.00021046
      0.84800000	     -6.20265458	      9.86678062	      0.18391609	      0.51284028	      0.99451405	      0.22490729	    -30.52538999	     -5.22909712	     -8.63562261	     16.15114673	      0.28189069	    -28.60340685	     -2.28762416	    -25.94504014	     69.29352079	      9.55645334	     -9.52634687	     76.71042089	      1.33884942	     -0.85743170	    -21.32886276	     -3.63352960	     -1.79596236	    -13.67631629	     10.28238268	     32.81182249	    -27.08797541	      0.12937377	    127.86935016	     90.00021046	    -60.79245750	    -17.24361473	     -4.72239144	     56.83025780	     90.00021046
      0.85200000	     -6.37954494	      9.76879363	      0.33357457	      0.54166309	      0.99557502	      0.22524429	    -30.75811295	     -4.98255961	     -8.15398847	     17.92302793	      0.31281585	    -27.52612891	     -3.48831981	    -26.36187463	     68.67020307	      9.70680526	     -9.15737031	     72.29041624	      1.26170578	     -1.39834329	    -20.76677183	     -4.78659224	     -1.51382483	    -13.63891124	     10.39722355	     33.21624087	    -27.20265009	     -0.23512765	    129.83910532	     90.00021046	    -61.37123551	    -17.06884398	     -5.61310399	     57.25828671	     90.00021046
      0.85600000	     -6.50427224	      9.71966315	      0.42203541	      0.57055145	      0.99652685	      0.22551547	    -30.92201733	     -4.83277008	     -7.77587071	     19.96224473	      0.34840690	    -26.24375498	     -4.37085935	    -25.63470812	     67.80892845	      9.89303421	     -8.79632756	     67.71109755	      1.18178159	     -1.80202220	    -20.21709559	     -5.06693985	     -1.27697610	    -13.63135125	     10.50625332	     33.57253606	    -27.21614192	     -0.39237175	    131.59815550	     90.00021046	    -61.85442261	    -16.81833689	     -6.41197671	     57.58536861	     90.00021046
      0.86000000	     -6.47188467	      9.59781650	      0.46328299	      0.59943483	      0.99755757	      0.22599491	    -31.10833673	     -4.63625286	     -7.36485067	     22.25834477	      0.38848140	    -24.96528156	     -5.15248473	    -23.01366576	     66.61381697	      9.99240236	     -8.36757308	     62.99357269	      1.09944525	     -2.35026685	    -19.42590436	     -6.69746695	     -1.24181620	    -13.56598978	     10.54670973	     33.91134032	    -27.08876693	     -0.92801971	    133.54324096	     90.00021046	    -62.19591119	    -16.42069919	     -7.38520620	     57.82047251	     90.00021046
      0.86400000	     -6.33975438	      9.64157386	      0.53577366	      0.62837717	      0.99863704	      0.22583414	    -31.29821747	     -4.69031289	     -7.41920083	     24.80554268	      0.43293839	    -24.06634488	     -5.98092272	    -24.29905580	     65.12882359	     10.36576182	     -7.73648608	     58.00753140	      1.01242241	     -2.68543275	    -18.33199411	     -7.39052555	     -1.33777435	    -13.60764275	     10.51852453	     34.08433707	    -27.12675949	     -1.06692509	    135.00527024	     90.00021046	    -62.36297434	    -16.05203580	     -8.15698645	     57.94446514	     90.00021046
      0.86800000	     -6.10631630	      9.55957113	      0.50469334	      0.65734955	      0.99983062	      0.22640334	    -31.47669342	     -4.61211416	     -7.21749419	     27.43887096	      0.47889864	    -23.67509623	     -6.61166738	    -21.25765301	     63.46837535	     10.42172602	     -7.53867290	     53.16076621	      0.92783040	     -3.56672042	    -17.72934199	     -8.75344715	     -1.52549579	    -13.56815268	     10.54574882	     34.06042131	    -26.95917707	     -1.32000407	    136.35656451	     90.00021046	    -62.45050772	    -15.75576340	     -8.84400255	     58.05232028	     90.00021046
      0.87200000	     -5.77413514	      9.70362858	      0.33221296	      0.68654647	      1.00111630	      0.22681438	    -31.69523593	     -4.92706809	     -7.31059886	     30.22117519	      0.52745901	    -23.41546570	     -7.22353047	    -21.28695179	     61.48249270	     10.56950806	     -7.47752612	     47.90246946	      0.83605581	     -4.45518033	    -17.22596227	     -8.48451353	     -1.74890619	    -13.70338959	     10.55375224	     33.96127227	    -26.66465006	     -1.11546165	    137.14276090	     90.00021046	    -62.43830587	    -15.27820692	     -9.62761918	     58.02256400	     90.00021046
      0.87600000	     -5.32528314	      9.82944064	      0.03691520	      0.71575493	      1.00237299	      0.22700383	    -31.95074516	     -5.34717756	     -7.41817052	     33.13804983	      0.57836808	    -23.20577733	     -7.99767120	    -20.84821168	     59.31250112	     10.71098068	     -7.17175551	     42.85523413	      0.74796494	     -5.20474448	    -15.76880787	    -13.06814750	     -2.16380912	    -13.81876107	     10.92760229	     33.41647837	    -26.76358982	     -1.92713517	    138.67215868	     90.00021046	    -62.18409022	    -15.06264383	    -10.08804679	     58.04209910	     90.00021046
      0.88000000	     -4.73269135	      9.89516865	     -0.30935827	      0.74505232	      1.00372877	      0.22756998	    -32.30709539	     -5.69844703	     -7.44551181	     36.10373162	      0.63012899	    -23.06643331	     -9.09138556	    -20.08282068	     56.95783316	     10.71799661	     -7.20495557	     37.91086642	      0.66166944	     -6.06286482	    -14.79984647	    -15.86220125	     -2.69344975	    -13.86891884	     11.11459860	     33.03906600	    -26.31284225	     -1.86596812	    139.23900114	     90.00021046	    -61.90891983	    -14.71506024	    -10.63119636	     57.99099471	     90.00021046
      0.88400000	     -4.24218816	      9.87428251	     -0.71509594	      0.77436277	      1.00492243	      0.22814950	    -32.43847496	     -6.04177883	     -7.33418483	     39.23498394	      0.68477965	    -22.90373250	    -10.35651760	    -19.25837039	     54.64482359	     10.64431828	     -7.10889600	     33.02467693	      0.57638935	     -7.00297340	    -13.73475483	    -17.57864101	     -3.11356867	    -13.91024327	     11.51374789	     31.99311095	    -26.40665422	     -2.55298897	    140.29119094	     90.00021046	    -61.53628240	    -14.45658014	    -11.15173064	     58.04239233	     90.00021046
      0.88800000	     -3.67797723	      9.67148506	     -1.02250320	      0.80339063	      1.00595783	      0.22878886	    -32.56850057	     -6.10200830	     -7.09787477	     42.46456675	      0.74114651	    -22.71209668	    -12.01663900	    -18.03773078	     52.32082088	     10.51027766	     -6.97958741	     28.53790985	      0.49808049	     -7.87734356	    -12.47059131	    -19.90888608	     -3.67752874	    -13.71911082	     11.66829718	     31.09695612	    -26.20397110	     -2.69846375	    140.79695858	     90.00021046	    -61.08536250	    -14.10977101	    -11.59524682	     58.08744023	     90.00021046
      0.89200000	     -3.21388974	      9.23069435	     -1.24364538	      0.83241415	      1.00666948	      0.22931529	    -32.49891192	     -5.90101542	     -6.73102567	     45.83452803	      0.79996343	    -22.40242479	    -13.77668363	    -16.48632917	     50.20261183	     10.23377452	     -6.69296892	     24.52993053	      0.42812805	     -8.70667717	    -11.16593468	    -22.26760202	     -4.16093826	    -13.28331889	     11.78145163	     29.99421958	    -26.06508742	     -3.02726414	    141.21687564	     90.00021046	    -60.58241260	    -13.79667733	    -11.99470737	     58.18975025	     90.00021046
      0.89600000	     -2.63619353	      8.70423503	     -1.31566933	      0.86114854	      1.00749460	      0.23016321	    -32.47840357	     -5.41773777	     -6.30026909	     49.25530018	      0.85966716	    -22.12811647	    -15.85833138	    -14.10461773	     48.04106119	      9.92665769	     -6.83757738	     20.92673424	      0.36524041	     -9.45338984	     -9.81284935	    -22.39612471	     -4.82085063	    -12.82513731	     11.66657071	     28.62191358	    -26.09492107	     -3.21712450	    141.40282119	     90.00021046	    -60.08256713	    -13.54772508	    -12.33473229	     58.48512903	     90.00021046
      0.90000000	     -2.30471898	      8.11330142	     -1.30979461	      0.88977911	      1.00772204	      0.23089762	    -32.07691655	     -4.85106344	     -5.82177985	     52.90209692	      0.92331577	    -21.68166504	    -17.89318255	    -11.76929009	     46.25522272	      9.56475557	     -7.04918176	     17.85378270	      0.31160729	    -10.02453333	     -8.43202421	    -24.16056523	     -5.20513622	    -12.25446478	     11.39744451	     27.25394448	    -25.89502741	     -3.16546939	    141.23587865	     90.00021046	    -59.57257724	    -13.19235495	    -12.71353017	     58.75955849	     90.00021046
